<?xml version="1.0" encoding="UTF-8"?>
<!DOCTYPE svg PUBLIC "-//W3C//DTD SVG 1.1//EN" "http://www.w3.org/Graphics/SVG/1.1/DTD/svg11.dtd">
<!-- Creator: CorelDRAW 2021 (64-Bit) -->
<svg xmlns="http://www.w3.org/2000/svg" xml:space="preserve" width="91.44mm" height="114.3mm" version="1.1" style="shape-rendering:geometricPrecision; text-rendering:geometricPrecision; image-rendering:optimizeQuality; fill-rule:evenodd; clip-rule:evenodd"
viewBox="0 0 9144 11430"
 xmlns:xlink="http://www.w3.org/1999/xlink"
 xmlns:xodm="http://www.corel.com/coreldraw/odm/2003">
 <defs>
  <style type="text/css">
   <![CDATA[
    .fil0 {fill:black;fill-rule:nonzero}
    .fil1 {fill:#676775;fill-rule:nonzero}
   ]]>
  </style>
 </defs>
<symbol id="s" viewBox="-7740.49 -7172.39 843.35 540.17">
 <polygon class="fil0" points="-7740.49,-7172.39 -7572.37,-7172.39 -7481.97,-6800.32 -7391.02,-7172.39 -7246.6,-7172.39 -7155.65,-6804.16 -7064.7,-7172.39 -6897.14,-7172.39 -7039.35,-6632.22 -7227.86,-6632.22 -7318.81,-7003.73 -7409.76,-6632.22 -7598.28,-6632.22 "/>
</symbol>
<symbol id="i" viewBox="-7698.05 -7172.42 542.95 553.97">
 <path class="fil0" d="M-7698.05 -6842.79l0 -329.63 173.63 0.01 0 54.02c0,29.49 -0.28,66.15 -0.55,110.24 -0.41,44.1 -0.55,73.59 -0.55,88.19 0,43.82 1.1,75.24 3.31,94.26 2.48,19.15 6.34,32.93 11.58,41.34 7.3,11.44 16.67,20.26 28.11,26.46 11.3,5.93 24.39,8.82 39.14,8.82 35.97,0 64.22,-13.78 84.89,-41.34 20.53,-27.56 30.87,-65.87 30.87,-115.2l0 -266.79 172.52 0 0 540.17 -172.53 0 0 -78.27c-26.18,31.69 -53.74,54.98 -82.68,70.01 -29.08,14.61 -61.19,22.05 -96.46,22.05 -62.15,0 -109.56,-19.02 -142.21,-57.33 -32.8,-38.17 -49.06,-93.85 -49.06,-167.02l-0.01 0.01z"/>
</symbol>
<symbol id="h" viewBox="-7691.99 -7185.63 542.95 553.41">
 <path class="fil0" d="M-7149.04 -6961.29l0 329.07 -173.63 0 0 -251.9c0,-46.58 -1.1,-78.82 -3.31,-96.46 -2.21,-17.64 -5.93,-30.59 -11.02,-39.14 -6.61,-11.02 -15.85,-19.57 -27.56,-25.91 -11.44,-6.2 -24.53,-9.37 -39.14,-9.37 -36.1,0 -64.35,14.06 -84.89,41.89 -20.67,27.56 -30.87,66.01 -30.87,115.2l0 265.68 -172.53 0.01 0 -540.17 172.53 -0.01 0 78.82c26.04,-31.14 53.6,-54.3 82.68,-69.45 29.35,-15.02 61.74,-22.6 97.01,-22.6 62.42,0 109.83,19.29 142.21,57.88 32.25,38.31 48.51,93.7 48.51,166.47l0.01 -0.01z"/>
</symbol>
<symbol id="m" viewBox="-7808.29 -7382.96 288.83 964.07">
 <path class="fil0" d="M-7691.99 -7172.39l172.53 0 0 530.26c0,72.35 -17.5,127.61 -52.37,165.91 -34.59,38.17 -84.89,57.33 -151.03,57.33l-85.43 0 0 -113.55 30.31 0c32.66,0 55.12,-7.44 67.25,-22.05 12.4,-14.75 18.74,-43.96 18.74,-87.64l0 -530.26zm0 -210.57l172.53 0 0 141.11 -172.53 0 0 -141.11z"/>
</symbol>
<symbol id="k" viewBox="-7730.55 -7382.97 579.32 764.54">
 <path class="fil0" d="M-7324.86 -7093.58l0 -289.39 173.63 0 0 750.75 -173.63 0 0 -78.27c-23.56,31.97 -49.61,55.4 -78.27,70.01 -28.66,14.61 -62.01,22.05 -99.77,22.05 -66.56,0 -121.13,-26.46 -163.71,-79.37 -42.72,-52.92 -63.94,-120.85 -63.94,-203.95 0,-83.37 21.22,-151.59 63.94,-204.5 42.58,-52.92 97.15,-79.37 163.71,-79.37 37.48,0 70.56,7.58 99.22,22.6 28.94,15.16 55.26,38.31 78.82,69.45l0 -0.01zm-113.56 350.02c36.66,0 64.77,-13.37 84.34,-40.24 19.43,-27.15 29.21,-66.42 29.21,-117.96 0,-51.4 -9.78,-90.54 -29.21,-117.41 -19.57,-27.15 -47.68,-40.79 -84.34,-40.79 -36.79,0 -64.9,13.64 -84.34,40.79 -19.57,26.87 -29.21,66.01 -29.21,117.41 0,51.54 9.65,90.81 29.21,117.96 19.43,26.87 47.54,40.24 84.34,40.24z"/>
</symbol>
<symbol id="v" viewBox="-7726.14 -7365.33 612.94 746.89">
 <path class="fil0" d="M-7113.2 -6671.91c-34.18,17.64 -69.87,30.87 -106.93,39.69 -36.79,9.09 -75.38,13.78 -115.75,13.78 -119.89,0 -214.83,-33.35 -284.98,-100.32 -70.28,-67.25 -105.28,-158.2 -105.28,-272.85 0,-114.93 35,-205.88 105.28,-272.85 70.14,-67.25 165.09,-100.87 284.98,-100.87 40.38,0 78.96,4.69 115.75,13.78 37.07,8.82 72.76,22.05 106.93,39.69l0 148.83c-34.59,-23.15 -68.63,-40.24 -101.97,-51.26 -33.49,-11.02 -68.76,-16.54 -105.83,-16.54 -66.15,0 -118.24,21.36 -155.99,63.94 -37.9,42.31 -56.78,100.74 -56.78,175.29 0,74.28 18.88,132.7 56.78,175.29 37.76,42.31 89.85,63.39 155.99,63.39 37.07,0 72.35,-5.24 105.83,-15.99 33.35,-11.02 67.39,-28.25 101.97,-51.82l0 148.82z"/>
</symbol>
<symbol id="e" viewBox="-7732.77 -7185.66 593.65 567.21">
 <path class="fil0" d="M-7435.12 -7062.19c-38.31,0 -67.53,13.78 -87.64,41.34 -20.26,27.56 -30.32,67.25 -30.32,119.06 0,51.81 10.06,91.5 30.32,119.06 20.12,27.29 49.33,40.79 87.64,40.79 37.48,0 66.15,-13.5 85.99,-40.79 20.12,-27.56 30.32,-67.25 30.32,-119.06 0,-51.81 -10.2,-91.5 -30.32,-119.06 -19.84,-27.56 -48.51,-41.34 -85.99,-41.34zm0 -123.47c92.88,0 165.5,25.22 217.73,75.52 52.09,50.02 78.27,119.48 78.27,208.36 0,88.61 -26.18,158.06 -78.27,208.36 -52.23,50.02 -124.85,74.97 -217.73,74.97 -93.43,0 -166.33,-24.94 -218.83,-74.97 -52.64,-50.3 -78.82,-119.75 -78.82,-208.36 0,-88.88 26.18,-158.34 78.82,-208.36 52.5,-50.3 125.4,-75.52 218.83,-75.52z"/>
</symbol>
<symbol id="c" viewBox="-7761.99 -7325.64 436.56 693.43">
 <path class="fil0" d="M-7503.47 -7325.64l0 153.24 178.04 0 0 123.47 -178.04 0 0 229.31c0,25.08 4.96,41.89 14.88,50.71 9.92,8.82 29.49,13.23 58.98,13.23l88.75 0 0 123.47 -147.73 0c-68.35,0 -116.86,-14.06 -145.52,-42.44 -28.39,-28.66 -42.44,-76.89 -42.44,-144.97l0 -229.31 -85.44 0 0 -123.47 85.44 0 0 -153.24 173.08 0z"/>
</symbol>
<symbol id="n" viewBox="-7684.27 -7352.1 592.56 719.89">
 <path class="fil0" d="M-7684.27 -7352.1l308.13 0c91.5,0 161.64,20.39 210.57,61.19 49.19,40.51 73.86,98.39 73.86,173.63 0,75.38 -24.67,133.39 -73.86,174.18 -48.92,40.79 -119.06,61.19 -210.57,61.19l-122.92 0 0 249.7 -185.21 0 0 -719.89zm185.21 134.5l0 201.19 103.08 0c35.97,0 63.67,-8.82 83.23,-26.46 19.84,-17.64 29.77,-42.44 29.77,-74.41 0,-32.25 -9.92,-57.05 -29.77,-74.41 -19.57,-17.23 -47.27,-25.91 -83.23,-25.91l-103.08 0z"/>
</symbol>
<symbol id="r" viewBox="-7756.47 -7382.97 419.47 750.74">
 <path class="fil0" d="M-7337 -7382.97l0 113.55 -95.36 0.01c-24.25,0 -41.34,4.41 -51.26,13.23 -9.65,8.82 -14.33,24.25 -14.33,46.3l0 37.48 147.72 0 0 123.47 -147.72 0 0 416.7 -172.53 0 0 -416.7 -85.99 0 0 -123.47 85.99 0 0 -37.48c0,-58.71 16.26,-102.25 49.06,-130.64 32.66,-28.25 83.51,-42.44 152.69,-42.44l131.73 -0.01z"/>
</symbol>
<symbol id="o" viewBox="-7684.27 -7352.1 644.92 719.88">
 <polygon class="fil0" points="-7684.27,-7352.1 -7477.01,-7352.1 -7215.18,-6858.21 -7215.18,-7352.1 -7039.35,-7352.1 -7039.35,-6632.22 -7246.6,-6632.22 -7508.43,-7126.11 -7508.43,-6632.22 -7684.27,-6632.22 "/>
</symbol>
<symbol id="t" viewBox="-7684.27 -7352.1 185.21 719.88">
 <polygon class="fil0" points="-7684.27,-7352.1 -7499.06,-7352.1 -7499.06,-6632.22 -7684.27,-6632.22 "/>
</symbol>
<symbol id="w" viewBox="-7730.56 -7298.64 556.72 679.1">
 <path class="fil0" d="M-7173.84 -6668.05c-30.87,16.26 -63.25,28.39 -97.01,36.38 -33.49,7.99 -68.35,12.13 -104.73,12.13 -109.14,0 -195.68,-30.45 -259.62,-91.5 -63.67,-60.91 -95.36,-143.59 -95.36,-248.05 0,-104.32 31.69,-187 95.36,-248.05 63.94,-60.91 150.48,-91.5 259.62,-91.5 36.38,0 71.24,4.27 104.73,12.68 33.76,8.13 66.15,20.12 97.01,35.83l0 135.6c-31.28,-21.22 -62.15,-36.93 -92.6,-46.85 -30.18,-9.92 -62.15,-14.88 -95.91,-14.88 -60.36,0 -107.76,19.29 -142.21,57.88 -34.18,38.59 -51.26,91.78 -51.26,159.3 0,67.66 17.09,120.72 51.26,159.3 34.45,38.59 81.86,57.88 142.21,57.88 33.76,0 65.73,-4.96 95.91,-14.88 30.45,-9.92 61.32,-25.49 92.6,-46.85l0 135.58z"/>
</symbol>
<symbol id="j" viewBox="-7770.26 -7352.1 754.61 719.88">
 <path class="fil0" d="M-7247.71 -6763.41l-289.94 0 -46.3 131.19 -186.31 0 266.79 -719.88 221.03 0 266.79 719.88 -186.31 0 -45.75 -131.19zm-243.64 -133.39l196.79 0 -98.11 -286.63 -98.68 286.63z"/>
</symbol>
<symbol id="q" viewBox="-7693.09 -7185.66 869.27 553.43">
 <path class="fil0" d="M-7191.48 -7082.58c21.64,-33.35 47.54,-58.98 77.72,-76.62 30.04,-17.64 63.12,-26.46 99.22,-26.46 62.01,0 109.28,19.29 141.66,57.88 32.66,38.31 49.06,93.7 49.06,166.47l0 329.07 -173.63 0.01 0 -281.67 0 -12.68c0.28,-4.69 0.55,-11.3 0.55,-19.84 0,-38.17 -5.79,-65.73 -17.09,-82.68 -11.02,-17.23 -29.08,-25.91 -54.02,-25.91 -32.8,0 -58.15,13.64 -76.07,40.79 -18.05,26.87 -27.29,65.87 -27.56,116.86l0 265.13 -173.63 -0.01 0 -281.67c0,-59.81 -5.24,-98.26 -15.43,-115.2 -10.34,-17.23 -28.66,-25.91 -55.12,-25.91 -33.07,0 -58.71,13.64 -76.62,40.79 -18.05,26.87 -27.01,65.6 -27.01,116.31l0 265.68 -173.64 0 0 -540.17 173.64 -0.01 0 78.82c21.22,-30.45 45.48,-53.47 72.76,-68.9 27.56,-15.43 57.88,-23.15 90.95,-23.15 37.48,0 70.56,9.09 99.22,27.01 28.66,18.05 50.3,43.41 65.05,76.07l-0.01 -0.01z"/>
</symbol>
<symbol id="l" viewBox="-7732.77 -7185.66 476.8 567.21">
 <path class="fil0" d="M-7255.97 -7155.32l0 140.56c-23.15,-16.12 -46.71,-28.11 -70.56,-35.83 -23.56,-7.72 -47.96,-11.58 -73.31,-11.58 -48.23,0 -85.85,14.19 -113,42.44 -26.87,27.97 -40.24,67.25 -40.24,117.96 0,50.44 13.37,89.71 40.24,117.96 27.15,27.97 64.77,41.89 113,41.89 26.73,0 52.37,-3.86 76.62,-11.58 24.25,-7.99 46.58,-19.98 67.25,-35.83l0 141.11c-26.87,9.92 -54.3,17.23 -82.13,22.05 -27.56,5.1 -55.53,7.72 -83.78,7.72 -97.43,0 -173.63,-24.94 -228.76,-74.97 -54.85,-49.89 -82.13,-119.34 -82.13,-208.36 0,-89.3 27.29,-158.89 82.13,-208.91 55.12,-49.89 131.33,-74.97 228.76,-74.97 28.25,0 56.23,2.62 83.78,7.72 27.56,4.82 54.85,12.4 82.13,22.6l0 0.02z"/>
</symbol>
<symbol id="p" viewBox="-7691.99 -7382.97 542.95 750.75">
 <path class="fil0" d="M-7149.04 -6961.29l0 329.07 -173.63 0 0 -250.8c0,-47.41 -1.1,-79.93 -3.31,-97.56 -2.21,-17.63 -5.93,-30.59 -11.02,-39.14 -6.61,-11.02 -15.85,-19.57 -27.56,-25.91 -11.44,-6.2 -24.53,-9.37 -39.14,-9.37 -36.1,0 -64.35,14.06 -84.89,41.89 -20.67,27.56 -30.87,66.01 -30.87,115.2l0 265.68 -172.53 0.01 0 -750.75 172.53 0 0 289.39c26.04,-31.14 53.6,-54.3 82.68,-69.45 29.35,-15.02 61.74,-22.6 97.01,-22.6 62.42,0 109.83,19.29 142.21,57.88 32.25,38.31 48.51,93.7 48.51,166.47l0.01 -0.01z"/>
</symbol>
<symbol id="g" viewBox="-7691.99 -7382.97 579.32 764.52">
 <path class="fil0" d="M-7404.8 -6743.56c37.07,0 65.32,-13.37 84.89,-40.24 19.43,-27.15 29.21,-66.42 29.21,-117.96 0,-51.4 -9.78,-90.54 -29.21,-117.41 -19.57,-27.15 -47.82,-40.79 -84.89,-40.79 -37.21,0 -65.6,13.64 -85.44,40.79 -19.57,27.29 -29.21,66.42 -29.21,117.41 0,51.12 9.65,90.26 29.21,117.41 19.84,27.29 48.23,40.79 85.44,40.79zm-114.66 -350.03c23.84,-31.14 50.16,-54.3 78.82,-69.45 28.94,-15.02 62.29,-22.6 99.77,-22.6 66.83,0 121.54,26.46 164.26,79.37 42.58,52.92 63.94,121.13 63.94,204.5 0,83.1 -21.36,151.03 -63.94,203.95 -42.72,52.92 -97.43,79.37 -164.26,79.37 -37.48,0 -70.83,-7.44 -99.77,-22.05 -28.66,-15.02 -54.98,-38.31 -78.82,-70.01l0 78.27 -172.53 0.02 0 -750.75 172.53 0 0 289.38z"/>
</symbol>
<symbol id="d" viewBox="-7732.77 -7185.64 546.26 567.2">
 <path class="fil0" d="M-7450 -6875.31c-36.1,0 -63.25,6.06 -81.58,18.19 -18.05,12.13 -27.01,30.18 -27.01,54.02 0,22.05 7.3,39.41 22.05,51.82 14.61,12.13 34.86,18.19 60.64,18.19 32.66,0 60.08,-11.58 82.13,-34.73 22.32,-23.43 33.62,-52.64 33.62,-87.64l0 -19.84 -89.85 -0.01zm263.48 -65.04l0 308.13 -173.63 0 0 -79.93c-23.15,32.8 -49.33,56.64 -78.27,71.66 -29.08,14.61 -64.35,22.05 -105.83,22.05 -55.95,0 -101.29,-16.12 -136.15,-48.51 -35,-32.66 -52.37,-75.1 -52.37,-127.33 0,-63.12 21.64,-109.42 65.05,-138.91 43.68,-29.77 112.17,-44.65 205.6,-44.65l101.96 0.01 0 -13.78c0,-27.15 -10.89,-46.99 -32.52,-59.53 -21.77,-12.82 -55.4,-19.29 -100.87,-19.29 -37.21,0 -71.66,3.72 -103.63,11.02 -31.69,7.44 -61.05,18.47 -88.19,33.07l0 -131.74c36.66,-8.82 73.59,-15.57 110.79,-20.39 37.48,-4.69 74.97,-7.17 112.45,-7.17 97.29,0 167.57,19.29 210.57,57.88 43.27,38.31 65.05,100.74 65.05,187.41l-0.01 0z"/>
</symbol>
<symbol id="f" viewBox="-7763.09 -7172.39 614.05 753.53">
 <path class="fil0" d="M-7763.09 -7172.39l172.53 0 145.52 366.57 123.47 -366.57 172.53 0 -227.1 591.47c-22.88,59.81 -49.47,101.7 -79.93,125.68 -30.59,24.25 -70.56,36.38 -120.16,36.38l-100.32 -0.01 0 -113.55 54.01 0c29.35,0 50.71,-4.82 63.94,-14.33 13.5,-9.23 23.98,-25.77 31.42,-49.61l4.96 -14.88 -240.87 -561.15z"/>
</symbol>
<symbol id="a" viewBox="-7732.76 -7185.64 579.89 567.2">
 <path class="fil0" d="M-7152.88 -6903.97l0 49.61 -404.04 0c4.41,40.51 19.02,70.83 44.1,90.95 24.94,20.26 60.08,30.32 105.28,30.32 36.38,0 73.45,-5.24 111.34,-15.99 38.17,-11.02 77.31,-27.29 117.41,-49.06l0 132.84c-40.79,15.43 -81.58,27.01 -122.37,34.73 -40.79,7.99 -81.58,12.13 -122.37,12.13 -97.84,0 -173.91,-24.8 -228.2,-74.41 -54.02,-49.61 -81.03,-119.2 -81.03,-208.91 0,-88.19 26.6,-157.37 79.93,-207.81 53.19,-50.71 126.36,-76.07 219.39,-76.07 84.89,0 152.82,25.77 203.95,77.17 50.99,51.12 76.62,119.34 76.62,204.5l-0.01 0zm-177.49 -57.32c0,-32.66 -9.65,-58.98 -28.66,-78.82 -19.15,-20.12 -44.1,-30.32 -74.97,-30.32 -33.49,0 -60.64,9.37 -81.58,28.11 -20.94,18.74 -34.04,45.75 -39.14,81.03l224.35 0z"/>
</symbol>
<symbol id="u" viewBox="-7726.14 -7365.33 612.94 746.89">
 <path class="fil0" d="M-7113.2 -6671.91c-34.18,17.64 -69.87,30.87 -106.93,39.69 -36.79,9.09 -75.38,13.78 -115.75,13.78 -119.89,0 -214.83,-33.35 -284.98,-100.32 -70.28,-67.25 -105.28,-158.2 -105.28,-272.85 0,-114.93 35,-205.88 105.28,-272.85 70.14,-67.25 165.09,-100.87 284.98,-100.87 40.38,0 78.96,4.69 115.75,13.78 37.07,8.82 72.76,22.05 106.93,39.69l0 148.83c-34.59,-23.15 -68.63,-40.24 -101.97,-51.26 -33.49,-11.02 -68.76,-16.54 -105.83,-16.54 -66.15,0 -118.24,21.36 -155.99,63.94 -37.9,42.31 -56.78,100.74 -56.78,175.29 0,74.28 18.88,132.7 56.78,175.29 37.76,42.31 89.85,63.39 155.99,63.39 37.07,0 72.35,-5.24 105.83,-15.99 33.35,-11.02 67.39,-28.25 101.97,-51.82l0 148.82z"/>
</symbol>
<symbol id="b" viewBox="-7692 -7185.64 401.28 553.42">
 <path class="fil0" d="M-7290.72 -7025.25c-15.43,-6.89 -30.73,-12.13 -45.75,-15.43 -14.75,-3.58 -29.63,-5.51 -44.65,-5.51 -44.51,0 -78.69,14.33 -102.52,43 -23.98,28.39 -35.83,68.9 -35.83,121.82l0 249.15 -172.53 -0.01 0 -540.17 172.53 -0.01 0 88.74c22.05,-35.28 47.41,-60.91 76.07,-77.17 28.94,-16.54 63.53,-24.8 103.63,-24.8 5.79,0 12.13,0.41 18.74,1.1 6.89,0.41 16.81,1.38 29.77,2.76l0.54 156.53z"/>
</symbol>
 <g id="Layer_x0020_1">
  <metadata id="CorelCorpID_0Corel-Layer"/>
  <g id="_2556904932816">
   <path class="fil1" d="M6371.97 8658.06l0 -34.1c0,-76.76 -51.17,-145.01 -119.43,-162.09l-1629.34 -477.7c-34.1,-8.51 -68.25,-8.51 -93.84,0l-1629.35 477.7c-76.76,25.59 -119.42,85.33 -119.42,162.09l0 34.1c-51.17,42.67 -85.33,110.91 -85.33,187.67 0,145.02 110.91,255.94 255.93,255.94 145.02,0 255.93,-110.92 255.93,-255.94 0,-42.66 -8.51,-76.76 -25.58,-110.91l1219.9 -366.79 0 290.03c-51.17,42.66 -85.33,110.91 -85.33,187.67 0,145.01 110.91,255.93 255.93,255.93 145.02,0 255.94,-110.91 255.94,-255.93 0,-76.76 -34.1,-145.02 -85.33,-187.67l0 -290.03 1228.42 358.29c-17.08,34.09 -25.59,68.25 -25.59,110.91 0,145.01 110.91,255.93 255.93,255.93 145.01,0 255.93,-110.91 255.93,-255.93 0,-68.25 -34.15,-136.5 -85.33,-179.17l-0.04 0z"/>
   <path class="fil1" d="M6960.58 4648.68l-341.25 0c-170.6,0 -298.6,136.5 -298.6,298.6l0 162.1c0,51.17 34.09,85.33 85.33,85.33l213.26 -0.06 0 1066.32c0,68.25 -42.66,119.42 -102.35,136.5 -59.74,-119.42 -187.67,-196.19 -324.17,-196.19l-1364.87 -0.06 0 -341.19 725.13 0.01c187.67,0 358.28,-145.02 383.86,-332.7l281.51 -2072.94c42.66,-281.5 -42.67,-571.55 -230.35,-784.81 -187.67,-213.27 -460.62,-341.19 -742.14,-341.19l-1347.84 -0.06c-281.51,0 -554.46,119.42 -742.15,341.19 -187.67,213.26 -273.01,503.29 -230.34,784.81l281.46 2081.47c25.59,187.67 187.67,332.69 383.86,332.69l725.15 0.01 0 341.19 -1356.36 0.06c-145.01,0 -264.43,76.76 -324.18,196.19 -59.74,-17.08 -102.34,-68.25 -102.34,-136.5l0 -1066.33 213.26 0c51.18,0 85.33,-34.1 85.33,-85.33l0 -162.1c0,-170.6 -136.5,-298.6 -298.6,-298.6l-349.77 0.06c-170.59,0 -298.6,136.51 -298.6,298.6l0 162.1c0,51.17 34.1,85.33 85.33,85.33l213.27 -0.06 0 1066.32c0,247.36 187.67,452.12 426.53,477.7 51.17,145.02 187.67,247.36 349.77,247.36l1185.75 0.06 0 426.53c0,51.17 34.1,85.33 85.33,85.33l85.33 0 0 213.27c0,51.17 34.1,85.32 85.33,85.32l341.19 0c51.18,0 85.33,-34.09 85.33,-85.32l0 -213.27 85.34 0c51.17,0 85.33,-34.1 85.33,-85.33l0 -426.53 1185.75 0c162.1,0 298.6,-102.35 349.77,-247.36 238.86,-34.09 426.53,-230.34 426.53,-477.7l-0.12 -1066.39 213.27 0.01c51.17,0 85.33,-34.1 85.33,-85.33l0 -162.1c-0.07,-170.53 -136.51,-307.04 -298.6,-307.04l0 0.03z"/>
  </g>
 </g>
</svg>
