<?xml version="1.0" encoding="UTF-8"?>
<!DOCTYPE svg PUBLIC "-//W3C//DTD SVG 1.1//EN" "http://www.w3.org/Graphics/SVG/1.1/DTD/svg11.dtd">
<!-- Creator: CorelDRAW 2021 (64-Bit) -->
<svg xmlns="http://www.w3.org/2000/svg" xml:space="preserve" width="91.44mm" height="114.3mm" version="1.1" style="shape-rendering:geometricPrecision; text-rendering:geometricPrecision; image-rendering:optimizeQuality; fill-rule:evenodd; clip-rule:evenodd"
viewBox="0 0 9144 11430"
 xmlns:xlink="http://www.w3.org/1999/xlink"
 xmlns:xodm="http://www.corel.com/coreldraw/odm/2003">
 <defs>
  <style type="text/css">
   <![CDATA[
    .fil0 {fill:#676775;fill-rule:nonzero}
   ]]>
  </style>
 </defs>
 <g id="Layer_x0020_1">
  <metadata id="CorelCorpID_0Corel-Layer"/>
  <g id="_2557213239072">
   <g>
    <path class="fil0" d="M2991.66 5551.3l0 276.61 3160.91 0 -0.04 -276.61c0,-470.04 358.78,-852.29 828.82,-852.29l300.08 0 0 -685.68c0,-345.89 -313.84,-668.99 -659.94,-668.99l-4122.72 0c-346.12,0 -636.02,323.1 -636.02,668.99l0 685.68 276.35 0c470.08,0 852.55,382.24 852.55,852.29l0.01 0z"/>
    <path class="fil0" d="M7308 4924.77l-326.69 0c-346.14,0 -603.05,280.65 -603.05,626.53l0 502.37 -3612.5 0 0 -502.37c0,-345.88 -280.65,-626.53 -626.75,-626.53l-326.91 0c-346.12,0 -626.76,280.65 -626.76,626.53l0 1837.12c0,123.97 100.47,245.65 224.64,245.65l226.93 0 0 255.36c0,123.97 67.51,196.2 191.68,196.2l496.02 0c124.2,0 215.41,-72.23 215.41,-196.2l0 -255.37 4063.98 0.01 0 255.36c0,123.97 67.51,196.2 191.68,196.2l496.02 0c124.2,0 215.41,-72.23 215.41,-196.2l0 -255.37 202.97 0.01c124.21,0 248.59,-121.67 248.59,-245.65l0 -1837.12c0,-345.88 -304.57,-626.53 -650.68,-626.53l0.01 0z"/>
   </g>
  </g>
 </g>
</svg>
